<svg xmlns="http://www.w3.org/2000/svg" viewBox="0 0 16 16">
  <path fill-rule="evenodd" d="M13.625 1.75a12.1 12.1 0 0 0-1 .039c-3.014.251-4.168 1.728-4.362 4.71-.02.317-.03.65-.03 1 .353 0 .687-.013 1-.04 2.936-.257 4.153-1.733 4.36-4.709.021-.316.032-.65.032-1m-1.04 1.046c-1.285.126-2.013.495-2.455.993-.464.523-.762 1.347-.86 2.662 1.24-.127 1.969-.493 2.423-.996.474-.526.788-1.353.893-2.659M7.025 10.72c-1.227-.086-2.048-.35-2.6-.842-.558-.497-1.01-1.383-1.138-3.082 1.518.143 2.396.608 2.908 1.202.513.593.8 1.471.83 2.721M3.25 5.788C7.073 6.1 8.23 8.285 8 11.749c-3.384 0-5.445-.863-5.719-5-.02-.313-.031-.646-.031-1 .352 0 .685.014 1 .04" clip-rule="evenodd"/>
  <path fill-rule="evenodd" d="m8.171 9.065-.001.013c-.16 1.406-.187 1.655-.17 5.17l-1 .005c-.017-3.54.01-3.825.178-5.3v-.001c.095-.83.494-1.478.85-1.906a4.376 4.376 0 0 1 .694-.665c.006-.004.01-.008.015-.01l.005-.004.001-.002h.002l.285.41.286.41h.001l-.005.003a3.376 3.376 0 0 0-.515.497c-.281.338-.56.808-.626 1.38" clip-rule="evenodd"/>
</svg>
