<svg width="64" height="64" viewBox="0 0 64 64" fill="none" xmlns="http://www.w3.org/2000/svg"><path d="M39.8275 30.7339L37.0052 28.0584L30.9217 33.924L27.5673 30.5593L24.6874 33.199L30.875 39.3911L39.8275 30.7339Z" fill="#F6821F"/><path fill-rule="evenodd" clip-rule="evenodd" d="M33.2214 16H30.7161L29.8142 17.0256C27.5367 19.1976 24.6347 20.6184 21.5032 21.0794L20.4044 21.2327L18.9998 22.8521V31.1816C18.9856 37.0238 21.8142 41.3559 24.6576 44.2291C27.453 47.0538 30.3075 48.5167 30.6418 48.688L30.6558 48.6952L30.6612 48.6979L31.2592 49H32.7127L33.3026 48.7021C33.6468 48.5364 36.5114 47.0638 39.318 44.2254C42.1639 41.3474 44.9997 37.0113 44.9997 31.1826V22.8393L43.6905 21.3538L43.3936 21.2071L42.481 21.0798L42.4779 21.0794C39.3415 20.6176 36.4209 19.2029 34.1451 17.0224L33.2214 16ZM22.9827 31.1826V24.839C26.3169 24.1803 29.4177 22.6676 31.9712 20.4569C34.5249 22.6751 37.6264 24.1886 40.9618 24.8406V31.1826C40.9618 35.5513 38.9218 38.8834 36.6999 41.2201C34.8358 43.1807 32.8722 44.408 31.9744 44.9102C31.0811 44.4069 29.1214 43.18 27.2578 41.2231C25.0308 38.8845 22.9827 35.5502 22.9827 31.1826Z" fill="#F6821F"/><path d="M47.7714 26.8298L50.6287 24.0111L53.6404 27.0228C52.5013 22.2929 49.8275 18.0746 46.0339 15.0243C42.2499 11.974 37.5586 10.2557 32.6936 10.1399C27.8285 10.0241 23.0696 11.5203 19.1409 14.3872C15.2122 17.2638 12.3453 21.3469 10.9842 26.0189L7.03615 24.8509C8.66749 19.2233 12.1425 14.3003 16.9014 10.8832C21.67 7.46606 27.4424 5.75749 33.2921 6.02777C39.1514 6.29806 44.7404 8.52788 49.1711 12.3601C53.6018 16.1923 56.6135 21.4145 57.7235 27.1676L60.8318 24.0401L63.6794 26.8298L55.6482 34.861L47.7521 26.8298H47.7714Z" fill="#F6821F"/><path d="M1.00954 37.7948L8.95091 30L16.7777 37.7948L13.9524 40.5304L10.9744 37.6074C12.0912 42.2074 14.7256 46.3109 18.4672 49.2808C22.2088 52.26 26.8476 53.937 31.6583 54.0495C36.4689 54.1712 41.1936 52.7285 45.0784 49.9366C48.9727 47.1541 51.8076 43.1818 53.1629 38.6473L57 39.6966C55.3965 45.1586 51.9603 49.9272 47.2547 53.2437C42.549 56.5603 36.8507 58.2279 31.0569 57.9749C25.2727 57.722 19.7367 55.5672 15.3555 51.8572C10.9649 48.1472 7.97733 43.0974 6.87012 37.5137L3.81575 40.521L1 37.776L1.00954 37.7948Z" fill="#F6821F"/></svg>